<?xml version="1.0" encoding="utf-8"?>
<!-- Generator: Adobe Illustrator 24.2.0, SVG Export Plug-In . SVG Version: 6.00 Build 0)  -->
<svg version="1.1" id="Layer_1" xmlns="http://www.w3.org/2000/svg" xmlns:xlink="http://www.w3.org/1999/xlink" x="0px" y="0px"
	 viewBox="0 0 500 382" style="enable-background:new 0 0 500 382;" xml:space="preserve">
<style type="text/css">
	.st0{fill:#EDF4FC;}
	.st1{fill:#D9E1E4;}
	.st2{fill:none;stroke:#BAC2C6;stroke-width:0.1432;stroke-miterlimit:10;}
	.st3{fill:none;stroke:#BAC2C6;stroke-width:0.1433;stroke-miterlimit:10;}
	.st4{fill:#BAC2C6;}
	.st5{opacity:0.34;fill:#FFFFFF;}
	.st6{fill:#ACD5F4;}
	.st7{fill:#B0BFDE;}
	.st8{fill:#D1DBEA;}
	.st9{fill:#E1EEFE;}
	.st10{fill:#005EB8;}
	.st11{fill:#86BBD8;}
	.st12{fill:#316091;}
	.st13{fill:#194866;}
	.st14{fill:#596273;}
	.st15{fill:#86C0F0;}
	.st16{fill:none;stroke:#FBB040;stroke-width:3;stroke-miterlimit:10;}
	.st17{fill:none;stroke:#2C7EEA;stroke-width:2.9411;stroke-miterlimit:10;}
	.st18{fill:none;stroke:#F1FAFC;stroke-width:2.9411;stroke-miterlimit:10;}
	.st19{fill:none;stroke:#E9D6B8;stroke-width:2.9411;stroke-miterlimit:10;}
	.st20{fill:none;stroke:#7EC8EF;stroke-width:2.9411;stroke-miterlimit:10;}
	.st21{fill:#2C7EEA;}
	.st22{fill:#DB8D26;}
	.st23{fill:#FBB040;}
	.st24{fill:#E2C59C;}
	.st25{fill:#163F59;}
	.st26{fill:#E9D6B8;}
	.st27{fill:#161711;}
	.st28{fill:#1F6CD1;}
	.st29{fill:#B6C2C9;}
	.st30{fill:#879BA6;}
	.st31{fill:#E4EEF3;}
	.st32{fill:#C3E5FC;}
	.st33{fill:#E23237;}
	.st34{fill:#B52E31;}
	.st35{fill:#FFFFFF;}
	.st36{fill:#005398;}
	.st37{fill:#74B2E8;}
	.st38{fill:#569DD1;}
	.st39{fill:#2162A3;}
	.st40{fill:#081832;}
</style>
<g>
	<rect x="3.3" y="11.3" class="st0" width="166.5" height="190.5"/>
	<g>
		<rect x="27.7" y="31.8" class="st1" width="76.3" height="3.1"/>
	</g>
	<g>
		<rect x="27.7" y="25.1" class="st1" width="24.7" height="3.1"/>
	</g>
	<g>
		<g>
			<g>
				<g>
					<rect x="30.7" y="41.5" class="st2" width="119.1" height="135"/>
					<line class="st3" x1="30.7" y1="157.2" x2="149.7" y2="157.2"/>
					<line class="st3" x1="30.7" y1="137.9" x2="149.7" y2="137.9"/>
					<line class="st3" x1="30.7" y1="118.6" x2="149.7" y2="118.6"/>
					<line class="st3" x1="30.7" y1="99.3" x2="149.7" y2="99.3"/>
					<line class="st3" x1="30.7" y1="80.1" x2="149.7" y2="80.1"/>
					<line class="st3" x1="30.7" y1="60.8" x2="149.7" y2="60.8"/>
					<line class="st3" x1="110" y1="41.5" x2="110" y2="176.5"/>
					<line class="st3" x1="70.3" y1="41.5" x2="70.3" y2="176.5"/>
				</g>
				<line class="st3" x1="30.7" y1="41.5" x2="24.5" y2="47.6"/>
				<line class="st3" x1="30.7" y1="60.8" x2="24.5" y2="66.9"/>
				<line class="st3" x1="30.7" y1="80.1" x2="24.5" y2="86.2"/>
				<line class="st3" x1="30.7" y1="99.3" x2="24.5" y2="105.5"/>
				<line class="st3" x1="30.7" y1="118.6" x2="24.5" y2="124.8"/>
				<line class="st3" x1="30.7" y1="137.9" x2="24.5" y2="144.1"/>
				<line class="st3" x1="30.7" y1="157.2" x2="24.5" y2="163.3"/>
				<g>
					<path class="st4" d="M19,163.9L19,163.9l-0.6,0.3l-0.1-0.4l0.8-0.4h0.4v3.5H19V163.9z"/>
					<path class="st4" d="M23.1,165.2c0,1.2-0.4,1.8-1.2,1.8c-0.7,0-1.1-0.6-1.2-1.8c0-1.2,0.5-1.8,1.2-1.8
						C22.7,163.4,23.1,164,23.1,165.2z M21.2,165.2c0,0.9,0.3,1.4,0.7,1.4c0.5,0,0.7-0.6,0.7-1.5c0-0.9-0.2-1.4-0.7-1.4
						C21.5,163.7,21.2,164.3,21.2,165.2z"/>
				</g>
				<g>
					<path class="st4" d="M18,147.8v-0.3l0.4-0.4c0.9-0.9,1.3-1.3,1.3-1.8c0-0.4-0.2-0.7-0.7-0.7c-0.3,0-0.6,0.2-0.7,0.3l-0.2-0.3
						c0.2-0.2,0.6-0.4,1-0.4c0.8,0,1.1,0.5,1.1,1c0,0.6-0.5,1.2-1.2,1.9l-0.3,0.3v0h1.6v0.4H18z"/>
					<path class="st4" d="M23.1,146c0,1.2-0.4,1.8-1.2,1.8c-0.7,0-1.1-0.6-1.2-1.8c0-1.2,0.5-1.8,1.2-1.8
						C22.7,144.2,23.1,144.9,23.1,146z M21.2,146.1c0,0.9,0.3,1.4,0.7,1.4c0.5,0,0.7-0.6,0.7-1.5c0-0.9-0.2-1.4-0.7-1.4
						C21.5,144.6,21.2,145.1,21.2,146.1z"/>
				</g>
				<g>
					<path class="st4" d="M18.1,128.1c0.1,0.1,0.4,0.2,0.8,0.2c0.6,0,0.8-0.4,0.8-0.7c0-0.5-0.4-0.7-0.9-0.7h-0.3v-0.4h0.3
						c0.3,0,0.8-0.2,0.8-0.6c0-0.3-0.2-0.5-0.6-0.5c-0.3,0-0.5,0.1-0.7,0.2l-0.1-0.3c0.2-0.1,0.5-0.3,0.9-0.3c0.7,0,1,0.4,1,0.8
						c0,0.4-0.2,0.7-0.6,0.8v0c0.4,0.1,0.8,0.4,0.8,0.9c0,0.6-0.4,1.1-1.3,1.1c-0.4,0-0.7-0.1-0.9-0.2L18.1,128.1z"/>
					<path class="st4" d="M23.1,126.9c0,1.2-0.4,1.8-1.2,1.8c-0.7,0-1.1-0.6-1.2-1.8c0-1.2,0.5-1.8,1.2-1.8
						C22.7,125.1,23.1,125.7,23.1,126.9z M21.2,126.9c0,0.9,0.3,1.4,0.7,1.4c0.5,0,0.7-0.6,0.7-1.5c0-0.9-0.2-1.4-0.7-1.4
						C21.5,125.5,21.2,126,21.2,126.9z"/>
				</g>
				<g>
					<path class="st4" d="M19.5,109.5v-1h-1.6v-0.3l1.6-2.2h0.5v2.2h0.5v0.4h-0.5v1H19.5z M19.5,108.2V107c0-0.2,0-0.4,0-0.5h0
						c-0.1,0.2-0.2,0.4-0.3,0.5l-0.9,1.2v0H19.5z"/>
					<path class="st4" d="M23.1,107.7c0,1.2-0.4,1.8-1.2,1.8c-0.7,0-1.1-0.6-1.2-1.8c0-1.2,0.5-1.8,1.2-1.8
						C22.7,105.9,23.1,106.6,23.1,107.7z M21.2,107.8c0,0.9,0.3,1.4,0.7,1.4c0.5,0,0.7-0.6,0.7-1.5c0-0.9-0.2-1.4-0.7-1.4
						C21.5,106.3,21.2,106.8,21.2,107.8z"/>
				</g>
				<g>
					<path class="st4" d="M20.1,87.3h-1.3l-0.1,0.9c0.1,0,0.2,0,0.3,0c0.3,0,0.5,0.1,0.8,0.2c0.3,0.2,0.5,0.5,0.5,0.9
						c0,0.7-0.5,1.2-1.3,1.2c-0.4,0-0.7-0.1-0.9-0.2l0.1-0.4c0.1,0.1,0.4,0.2,0.7,0.2c0.4,0,0.8-0.3,0.8-0.8c0-0.5-0.3-0.8-1-0.8
						c-0.2,0-0.4,0-0.5,0l0.2-1.7h1.7V87.3z"/>
					<path class="st4" d="M23.1,88.6c0,1.2-0.4,1.8-1.2,1.8c-0.7,0-1.1-0.6-1.2-1.8c0-1.2,0.5-1.8,1.2-1.8
						C22.7,86.8,23.1,87.5,23.1,88.6z M21.2,88.6c0,0.9,0.3,1.4,0.7,1.4c0.5,0,0.7-0.6,0.7-1.5c0-0.9-0.2-1.4-0.7-1.4
						C21.5,87.2,21.2,87.7,21.2,88.6z"/>
				</g>
				<g>
					<path class="st4" d="M20,68c-0.1,0-0.2,0-0.4,0c-0.7,0.1-1.1,0.7-1.2,1.2h0c0.2-0.2,0.5-0.4,0.8-0.4c0.6,0,1.1,0.4,1.1,1.1
						c0,0.6-0.4,1.2-1.2,1.2c-0.7,0-1.2-0.6-1.2-1.5c0-0.7,0.2-1.2,0.6-1.6c0.3-0.3,0.7-0.5,1.1-0.5c0.1,0,0.3,0,0.3,0V68z
						 M19.9,70.1c0-0.5-0.3-0.8-0.7-0.8c-0.3,0-0.5,0.2-0.7,0.4c0,0.1-0.1,0.1-0.1,0.2c0,0.6,0.3,1,0.8,1
						C19.6,70.9,19.9,70.6,19.9,70.1z"/>
					<path class="st4" d="M23.1,69.4c0,1.2-0.4,1.8-1.2,1.8c-0.7,0-1.1-0.6-1.2-1.8c0-1.2,0.5-1.8,1.2-1.8
						C22.7,67.7,23.1,68.3,23.1,69.4z M21.2,69.5c0,0.9,0.3,1.4,0.7,1.4c0.5,0,0.7-0.6,0.7-1.5c0-0.9-0.2-1.4-0.7-1.4
						C21.5,68,21.2,68.5,21.2,69.5z"/>
				</g>
				<g>
					<path class="st4" d="M20.3,48.6v0.3l-1.5,3.2h-0.5l1.5-3.1v0h-1.7v-0.4H20.3z"/>
					<path class="st4" d="M23.1,50.3c0,1.2-0.4,1.8-1.2,1.8c-0.7,0-1.1-0.6-1.2-1.8c0-1.2,0.5-1.8,1.2-1.8
						C22.7,48.5,23.1,49.2,23.1,50.3z M21.2,50.3c0,0.9,0.3,1.4,0.7,1.4c0.5,0,0.7-0.6,0.7-1.5c0-0.9-0.2-1.4-0.7-1.4
						C21.5,48.9,21.2,49.4,21.2,50.3z"/>
				</g>
				<rect x="30.7" y="60.8" class="st5" width="119.1" height="19.3"/>
				<rect x="30.7" y="99.3" class="st5" width="119.1" height="19.3"/>
				<rect x="30.7" y="137.9" class="st5" width="119.1" height="19.3"/>
			</g>
			<g>
				<rect x="30.7" y="60.8" class="st6" width="53.5" height="3.1"/>
				<rect x="30.7" y="68.9" class="st7" width="91.9" height="3.1"/>
				<rect x="30.7" y="77" class="st8" width="32.8" height="3.1"/>
				<rect x="30.7" y="99.3" class="st6" width="96.6" height="3.1"/>
				<rect x="30.7" y="107.4" class="st7" width="39.7" height="3.1"/>
				<rect x="30.7" y="115.5" class="st8" width="79.4" height="3.1"/>
				<rect x="30.7" y="138.2" class="st6" width="39.7" height="3.1"/>
				<rect x="30.7" y="146.3" class="st7" width="79.4" height="3.1"/>
				<rect x="30.7" y="154.4" class="st8" width="65.5" height="3.1"/>
			</g>
		</g>
	</g>
</g>
<g>
	<path class="st9" d="M415.1,104.4l2.8-11.2l-5.7-2.8c0-1.6-0.1-3.3-0.3-5l5.6-3l-3.2-11.1l-7,0.5c-0.7-1.3-1.5-2.5-2.4-3.7l3.7-5.9
		l-8.3-8.1l-6.2,4.2c-1.1-0.7-2.3-1.3-3.5-1.9l0.3-7.3l-11.2-2.8l-3.4,6.8c-1.3,0-2.6,0-3.9,0.1l-3.5-6.5l-11.1,3.2l0.5,7.4
		c-1.2,0.6-2.4,1.3-3.6,2.1l-6-3.7l-8,8.3l3.8,5.7c-0.9,1.3-1.6,2.6-2.3,4l-6.5-0.2l-2.8,11.2l5.5,2.7c-0.1,1.7-0.1,3.5,0,5.3
		l-5.1,2.7l3.2,11.1l5.5-0.4c0.9,1.8,1.8,3.5,3,5.1l-2.7,4.4l8.3,8l4.2-2.8c1.7,1.2,3.6,2.2,5.5,3l-0.2,4.8l11.2,2.8l2.2-4.4
		c2.1,0.1,4.2,0,6.4-0.2l2.2,4.2l11.1-3.2l-0.3-5.1c1.8-1,3.5-2.1,5.1-3.3l4.3,2.7l8-8.3l-3.1-4.7c1-1.6,1.8-3.3,2.5-5L415.1,104.4z
		 M379.6,105.4c-8.4,2.4-17.2-2.5-19.6-10.9c-2.4-8.4,2.5-17.2,10.9-19.6c8.4-2.4,17.2,2.5,19.6,10.9
		C392.9,94.3,388,103,379.6,105.4z"/>
	<path class="st8" d="M368.5,66.6c-13,3.7-20.6,17.3-16.9,30.3c3.7,13,17.3,20.6,30.3,16.9c13-3.7,20.6-17.3,16.9-30.3
		C395.1,70.4,381.5,62.9,368.5,66.6z M380.5,108.9c-10.3,2.9-21.1-3-24-13.4c-2.9-10.3,3-21.1,13.4-24c10.3-2.9,21.1,3,24,13.4
		C396.8,95.2,390.9,105.9,380.5,108.9z"/>
</g>
<g>
	<path class="st8" d="M497.2,58.2l2.8-11.3l-5.7-2.8c0-1.7-0.1-3.3-0.3-5l5.6-3l-3.2-11.2l-7,0.5c-0.7-1.3-1.5-2.5-2.4-3.7l3.7-5.9
		l-8.4-8.1l-6.3,4.2c-1.2-0.7-2.3-1.3-3.6-1.9l0.3-7.4l-11.3-2.8L458,6.6c-1.3,0-2.6,0-4,0.1l-3.5-6.6l-11.2,3.2l0.5,7.4
		c-1.3,0.6-2.5,1.4-3.6,2.1l-6-3.8l-8.1,8.4l3.8,5.7c-0.9,1.3-1.7,2.7-2.4,4.1l-6.5-0.2l-2.8,11.3l5.6,2.7c-0.1,1.8-0.1,3.5,0,5.3
		l-5.1,2.7l3.2,11.2l5.5-0.4c0.9,1.8,1.9,3.5,3,5.1l-2.7,4.4l8.4,8.1l4.2-2.8c1.7,1.2,3.6,2.2,5.5,3.1l-0.2,4.8l11.3,2.8L455,81
		c2.1,0.1,4.3,0,6.4-0.2l2.2,4.2l11.2-3.2l-0.3-5.1c1.8-1,3.6-2.1,5.2-3.3l4.3,2.7l8.1-8.4l-3.2-4.7c1-1.6,1.8-3.3,2.5-5L497.2,58.2
		z M462.4,62.6c-10.4,3-21.2-3.1-24.2-13.5c-3-10.4,3.1-21.2,13.5-24.2c10.4-3,21.2,3.1,24.2,13.5C478.8,48.8,472.7,59.7,462.4,62.6
		z"/>
	<path class="st7" d="M449.3,16.8C434.4,21,425.7,36.6,430,51.5c4.2,14.9,19.8,23.6,34.7,19.3c14.9-4.2,23.6-19.8,19.3-34.7
		C479.8,21.2,464.2,12.5,449.3,16.8z M463.1,65.2c-11.8,3.4-24.1-3.5-27.5-15.3c-3.4-11.8,3.5-24.2,15.3-27.5
		c11.8-3.4,24.2,3.5,27.5,15.3C481.8,49.5,474.9,61.9,463.1,65.2z"/>
</g>
<g>
	<g>
		<rect x="137.9" y="97.2" class="st10" width="343.1" height="193.2"/>
		<g>
			<rect x="138.1" y="97.1" class="st6" width="343.1" height="5"/>
			<rect x="144.2" y="99.4" class="st11" width="8.3" height="0.5"/>
			<rect x="154.8" y="99.4" class="st11" width="8.3" height="0.5"/>
			<rect x="165.4" y="99.4" class="st11" width="8.3" height="0.5"/>
			<rect x="176" y="99.4" class="st11" width="8.3" height="0.5"/>
			<rect x="186.6" y="99.4" class="st11" width="8.3" height="0.5"/>
			<rect x="197.2" y="99.4" class="st11" width="8.3" height="0.5"/>
			<rect x="207.8" y="99.4" class="st11" width="8.3" height="0.5"/>
			<rect x="218.4" y="99.4" class="st11" width="8.3" height="0.5"/>
			<rect x="140.5" y="98.8" class="st11" width="1.6" height="1.7"/>
		</g>
		<g>
			<rect x="138.1" y="101.6" class="st12" width="343.1" height="6"/>
			<rect x="458.2" y="102.9" class="st13" width="21.8" height="3.8"/>
			<rect x="454.5" y="104.4" class="st14" width="0.8" height="0.8"/>
			<rect x="441.3" y="104.4" class="st13" width="11.5" height="0.8"/>
			<rect x="145.7" y="103.8" class="st15" width="1.6" height="1.7"/>
			<rect x="140.5" y="103.8" class="st15" width="1.6" height="1.7"/>
			<rect x="149.1" y="103.8" class="st15" width="1.6" height="1.7"/>
		</g>
	</g>
	<g>
		<line class="st16" x1="181.7" y1="112.6" x2="253.5" y2="112.6"/>
		<line class="st17" x1="187.7" y1="121.1" x2="199.5" y2="121.1"/>
		<line class="st17" x1="187.7" y1="129.5" x2="199.5" y2="129.5"/>
		<line class="st17" x1="187.7" y1="138" x2="199.5" y2="138"/>
		<line class="st16" x1="222.7" y1="121.1" x2="259.1" y2="121.1"/>
		<line class="st16" x1="222.7" y1="129.5" x2="259.1" y2="129.5"/>
		<line class="st16" x1="222.7" y1="138" x2="259.1" y2="138"/>
		<line class="st18" x1="204.7" y1="121.1" x2="213" y2="121.1"/>
		<line class="st18" x1="204.7" y1="129.5" x2="213" y2="129.5"/>
		<line class="st18" x1="204.7" y1="138" x2="213" y2="138"/>
		<line class="st19" x1="216.6" y1="121.1" x2="218.8" y2="121.1"/>
		<line class="st19" x1="216.6" y1="129.5" x2="218.8" y2="129.5"/>
		<line class="st19" x1="216.6" y1="138" x2="218.8" y2="138"/>
		<line class="st19" x1="182" y1="121.1" x2="184.2" y2="121.1"/>
		<line class="st19" x1="182" y1="129.5" x2="184.2" y2="129.5"/>
		<line class="st19" x1="182" y1="138" x2="184.2" y2="138"/>
		<line class="st17" x1="187.7" y1="154.9" x2="206" y2="154.9"/>
		<line class="st16" x1="231.3" y1="154.9" x2="259.1" y2="154.9"/>
		<line class="st18" x1="211.1" y1="154.9" x2="221.6" y2="154.9"/>
		<line class="st19" x1="225.2" y1="154.9" x2="227.5" y2="154.9"/>
		<line class="st16" x1="260.2" y1="171.8" x2="346.2" y2="171.8"/>
		<line class="st18" x1="212.2" y1="171.8" x2="253.5" y2="171.8"/>
		<line class="st16" x1="291.5" y1="154.9" x2="319.2" y2="154.9"/>
		<line class="st18" x1="266.9" y1="154.9" x2="281.8" y2="154.9"/>
		<line class="st19" x1="285.4" y1="154.9" x2="287.6" y2="154.9"/>
		<line class="st19" x1="322" y1="154.9" x2="324.3" y2="154.9"/>
		<line class="st19" x1="182" y1="154.9" x2="184.2" y2="154.9"/>
		<line class="st17" x1="187.7" y1="188.7" x2="206" y2="188.7"/>
		<line class="st18" x1="182" y1="188.7" x2="184.2" y2="188.7"/>
		<line class="st18" x1="209.5" y1="188.7" x2="211.7" y2="188.7"/>
		<line class="st17" x1="173.6" y1="222.5" x2="192" y2="222.5"/>
		<line class="st18" x1="168" y1="222.5" x2="170.2" y2="222.5"/>
		<line class="st18" x1="195.5" y1="222.5" x2="197.7" y2="222.5"/>
		<line class="st19" x1="197.4" y1="180.2" x2="199.6" y2="180.2"/>
		<line class="st17" x1="197.4" y1="163.3" x2="208.2" y2="163.3"/>
		<line class="st19" x1="212.2" y1="163.3" x2="254.3" y2="163.3"/>
		<line class="st16" x1="284.7" y1="121.1" x2="321.1" y2="121.1"/>
		<line class="st16" x1="284.7" y1="129.5" x2="321.1" y2="129.5"/>
		<line class="st16" x1="284.7" y1="138" x2="321.1" y2="138"/>
		<line class="st16" x1="323" y1="121.1" x2="386.7" y2="121.1"/>
		<line class="st16" x1="323" y1="129.5" x2="410.1" y2="129.5"/>
		<line class="st16" x1="323" y1="138" x2="425.8" y2="138"/>
		<line class="st18" x1="266.7" y1="121.1" x2="275" y2="121.1"/>
		<line class="st18" x1="266.7" y1="129.5" x2="275" y2="129.5"/>
		<line class="st18" x1="266.7" y1="138" x2="275" y2="138"/>
		<line class="st19" x1="278.6" y1="121.1" x2="280.9" y2="121.1"/>
		<line class="st19" x1="278.6" y1="129.5" x2="280.9" y2="129.5"/>
		<line class="st19" x1="278.6" y1="138" x2="280.9" y2="138"/>
		<line class="st19" x1="395" y1="121.1" x2="397.2" y2="121.1"/>
		<line class="st19" x1="416.4" y1="129.5" x2="418.6" y2="129.5"/>
		<line class="st19" x1="431" y1="138" x2="433.2" y2="138"/>
		<line class="st20" x1="181.7" y1="146.4" x2="253.5" y2="146.4"/>
		<line class="st17" x1="173.1" y1="240.4" x2="185" y2="240.4"/>
		<line class="st17" x1="200.9" y1="257.3" x2="212.7" y2="257.3"/>
		<line class="st16" x1="235.9" y1="257.3" x2="314.7" y2="257.3"/>
		<line class="st18" x1="182.5" y1="248.9" x2="297.9" y2="248.9"/>
		<line class="st18" x1="217.9" y1="257.3" x2="226.2" y2="257.3"/>
		<line class="st19" x1="229.8" y1="257.3" x2="232.1" y2="257.3"/>
		<line class="st19" x1="167.4" y1="240.4" x2="169.7" y2="240.4"/>
		<line class="st19" x1="187.7" y1="240.4" x2="189.9" y2="240.4"/>
		<line class="st17" x1="216.8" y1="265.8" x2="222.2" y2="265.8"/>
		<line class="st19" x1="211.1" y1="265.8" x2="213.3" y2="265.8"/>
		<line class="st19" x1="224.9" y1="265.8" x2="227.1" y2="265.8"/>
		<line class="st17" x1="231.9" y1="282.7" x2="237.3" y2="282.7"/>
		<line class="st19" x1="226.2" y1="282.7" x2="228.4" y2="282.7"/>
		<line class="st19" x1="240" y1="282.7" x2="242.2" y2="282.7"/>
		<line class="st19" x1="195.2" y1="257.3" x2="197.4" y2="257.3"/>
		<line class="st18" x1="226.5" y1="274.2" x2="405" y2="274.2"/>
		<line class="st19" x1="317.4" y1="257.3" x2="319.6" y2="257.3"/>
		<line class="st20" x1="181.7" y1="197.1" x2="280.4" y2="197.1"/>
		<line class="st20" x1="181.7" y1="205.6" x2="327.9" y2="205.6"/>
		<line class="st20" x1="181.7" y1="214" x2="231.3" y2="214"/>
		<line class="st17" x1="142.4" y1="112.6" x2="147.8" y2="112.6"/>
		<line class="st17" x1="142.4" y1="121.1" x2="147.8" y2="121.1"/>
		<line class="st17" x1="142.4" y1="129.5" x2="147.8" y2="129.5"/>
		<line class="st17" x1="142.4" y1="138" x2="147.8" y2="138"/>
		<line class="st17" x1="142.4" y1="146.4" x2="147.8" y2="146.4"/>
		<line class="st17" x1="142.4" y1="154.9" x2="147.8" y2="154.9"/>
		<line class="st17" x1="142.4" y1="163.3" x2="147.8" y2="163.3"/>
		<line class="st17" x1="142.4" y1="171.8" x2="147.8" y2="171.8"/>
		<line class="st17" x1="142.4" y1="180.2" x2="147.8" y2="180.2"/>
		<line class="st17" x1="142.4" y1="188.7" x2="147.8" y2="188.7"/>
		<line class="st17" x1="142.4" y1="197.1" x2="147.8" y2="197.1"/>
		<line class="st17" x1="142.4" y1="205.6" x2="147.8" y2="205.6"/>
		<line class="st17" x1="142.4" y1="214" x2="147.8" y2="214"/>
		<line class="st17" x1="142.4" y1="222.5" x2="147.8" y2="222.5"/>
		<line class="st17" x1="142.4" y1="230.9" x2="147.8" y2="230.9"/>
		<line class="st17" x1="142.4" y1="239.4" x2="147.8" y2="239.4"/>
		<line class="st17" x1="142.4" y1="247.8" x2="147.8" y2="247.8"/>
	</g>
</g>
<g>
	<path class="st21" d="M281.5,96c0,0,22.9,0,31.7,0.2c6.1,0.1,6.7-8.6,4.3-9.9c-7.3-4-30.1-6-30.1-6l-15.5,14.2
		C271.8,94.5,272.7,94.5,281.5,96z"/>
	<path class="st22" d="M303.1,49.4c0,0,5.9-1.6,8.4,6c3.9,11.8,3.6,22.6,3,24.9c-0.3,1.1-1,4.7-7.6,4.9c-2.7,0.1-1.6-5.7-1.6-5.7
		s-1.7-4.8-3.5-13C300,58.2,303.1,49.4,303.1,49.4z"/>
	<path class="st23" d="M307.7,50l-15.1-4.9l-11.4-0.8l-12.5,3.8c0,0-4.1,2.8-0.3,11.9c3.8,9.1,2.3,23.3,2.3,23.3l32.3,1
		c0,0,0.6-13.1,2.7-26.3C306.3,55.2,306.3,51.7,307.7,50z"/>
	<path class="st22" d="M285.6,83.7h1.6C289,71,288.9,58,287,45.3c-0.5,0.3-1,0.6-1.5,0.9C285.9,59.1,285.2,72.1,285.6,83.7z"/>
	<g>
		<path class="st24" d="M292,48.7c-0.2,1.7-1.6,3.3-3.1,3.3c-1.4,0-2.8,0-4.3,0c-1.5-0.1-2.9-1.6-3.1-3.3c-0.3-2.9-0.7-5.7-1-8.6
			c-0.2-1.7,0.8-5.2,3.1-6.2c2.1-0.9,4.4-0.9,6.5,0c2.3,1,3.3,4.5,3.1,6.2C292.7,43,292.4,45.8,292,48.7z"/>
	</g>
	<polygon class="st22" points="286.6,52.2 283.9,56.7 278.9,50.5 279.7,47.2 281.3,45.9 281.3,48.4 	"/>
	<polygon class="st22" points="286.9,52.2 289.6,56.7 294.2,50.9 293.5,47.4 292.3,45.9 291.8,48.8 	"/>
	<g>
		<path class="st25" d="M286.1,28.4c-1.2,0-2.2,0.6-2.9,1.5h-1.2c-1.5,0-2.6,1.2-2.6,2.6v6.5h1.9v-2.7c0-1,0.8-1.9,1.9-1.9h1.1h-1.7
			h1.1c1.9,0,3.4-1.5,3.4-3.4v-2.8H286.1z"/>
		<path class="st24" d="M282.8,41.5c0,0.9-0.7,1.6-1.6,1.6h-0.1c-0.9,0-1.6-0.7-1.6-1.6v-2c0-0.9,0.7-1.6,1.6-1.6h0.1
			c0.7,0,1.2,0.4,1.5,1"/>
		<path class="st25" d="M284.7,31v-2.6h1.1h2.8h1.7c1.9,0,3.4,1.5,3.4,3.4v2.6h-1.1h-2.8h-1.7C286.2,34.4,284.7,32.9,284.7,31z"/>
		<path class="st26" d="M293.2,44c0,1.4-1,3.7-2.8,4.4c-2.3,1-5.1,1-7.4,0c-1.7-0.7-2.8-3-2.8-4.4c0-3.8,0-7.7,0-11.5
			c0-1.4,1.4-2.5,3-2.5c2.3,0,4.6,0,6.9,0c1.7,0,3,1.2,3,2.5C293.2,36.3,293.2,40.2,293.2,44z"/>
		<path class="st25" d="M288,28.4c1.2,0,2.2,0.6,2.8,1.5h1.2c1.5,0,2.6,1.2,2.6,2.6v6.5h-1.9v-2.7c0-1-0.8-1.9-1.9-1.9h0h0.7h-3
			c-1.9,0-3.4-1.5-3.4-3.4v-2.8H288z"/>
		<path class="st26" d="M291.4,39.6c0-0.9,0.7-1.6,1.6-1.6h0.1c0.9,0,1.6,0.7,1.6,1.6v2c0,0.9-0.7,1.6-1.6,1.6H293
			c-0.7,0-1.2-0.4-1.5-1"/>
		<path class="st25" d="M285.2,31.7c0-0.2,0.1-0.4,0.1-0.7v-2.6h-1.1h-1.3c-1.9,0-3.4,1.5-3.4,3.4v2.6h0.7h0.4h1.3
			c0.2,0,0.5,0,0.7-0.1C282.8,33,283.9,31.9,285.2,31.7z"/>
	</g>
	<path class="st27" d="M255.3,139.7c-0.4,0.4-0.1,1.5-0.1,1.5s6.2,0.7,8.1,0.2c0.5-0.1,1.4-0.6,2.2-1c0.1-0.1,0.4-0.6,0.5-0.6
		c0.2-0.1,0.4,0.1,0.6,0c0.5-0.3,0.9-0.6,0.9-0.6c0.5-2.8-0.2-4-0.2-4s-5.2-1.7-6.2-0.5C258.8,137.5,256,138.8,255.3,139.7z"/>
	<path class="st27" d="M312.8,136.7l0.4,4.6l4.7,0.5c0,0,0.3-0.6,0.7-0.6c0.3,0,0.7,0.7,1.2,0.8c1,0.1,2.1,0.2,2.5,0.2
		c0.9,0.1,9.3,0.9,9.3,0.9s0.3-0.9,0.1-1.3c-0.1-0.2-0.9-0.6-1.4-0.8c-2.3-0.9-9-3.7-10-6.1C319.1,132,312.8,136.7,312.8,136.7z"/>
	<g>
		<path class="st26" d="M305.7,77.8L290,84.2c0,0,11.2,1.6,18.1,0.2C312.9,83.4,306,77.6,305.7,77.8z"/>
	</g>
	<path class="st21" d="M270,87.6c0,0-1.5,14.4-1.3,22c0.2,5.7,0.2,16.7-1.2,26.1c-0.1,0.6-7.4,0.1-7.4,0.1s-2.6-35.6-3.4-41.5
		C256,88.4,258.2,84.2,270,87.6z"/>
	<path class="st28" d="M316.1,91.1c0,0-2.4,3.7-8.8,4.6c-2.3,0.3,3.8,41.7,3.8,41.7l9.6-3.1l-1.8-45.8L316.1,91.1z"/>
	<path class="st28" d="M289.7,95.7c0,0-12.5,1.8-20.8,2.7c-3.1,0.3-5.7-8.2-6.1-8.6c-2.2-2.3-4.4-2-4.4-2.1c1.8-2,11.2-3.8,20.9-6.1
		c9.8-2.3,11.3-0.9,11.3-0.9L289.7,95.7z"/>
	<path class="st21" d="M279.4,81.5c-9.8,2.3-19.1,4.1-20.9,6.1c-0.1,0.1,2.1-0.2,4.4,2.1c0.1,0.1,0.7,2.8,1.1,3.8
		c-1.6-2.9,21.4-11,26.4-13.1C289.3,80.2,286.6,79.8,279.4,81.5z"/>
	<polygon class="st28" points="268.6,95.6 267.7,123.5 266.7,130 266.6,123.5 266.8,119.5 264.6,113.2 263.4,98.6 265.1,99.3 
		264.9,92.9 	"/>
	<path class="st21" d="M315.7,87.6l2.3,0.6l0.9,33.6l-4.9,12l2.3-8.2l-1-16.9c0,0-3.4,8.2-3.4,7.8c0-0.4,2.9-17.8,2.9-17.8
		s-3.2,2.7-2.9,2.6C312.3,101.2,313.9,89.2,315.7,87.6z"/>
	<path class="st23" d="M275.7,48.3c0,0-5-3.9-9.9,3.4c-7.2,10.7-10.3,22.1-11.5,25.4c-0.9,2.5-0.4,9.7,2.6,12.6c0.7,0.7,5,0.1,5,0.1
		l2.8-1.9l-1.2-2.2l-0.1-1.8c0,0,3.6-8.6,8-16.8C275.7,59,275.7,48.3,275.7,48.3z"/>
	<g>
		<path class="st26" d="M263.4,81l16.3,0.9c0,0-15.7,7.2-16.2,6C260.5,80.8,263.4,81,263.4,81z"/>
		<g>
			<path class="st26" d="M272.4,80.5c1-0.5,0.9-0.5,0.9-0.5s0.9,1,2.1,1.2c0.6,0.1,2.6,0.1,2.6,0.1l3,0.1l1.4-0.1c0,0,0.8-0.1,1,0
				c0.6,0.4,0.1,0.7,0.1,0.7l-5.4,0.8l5.2,0.6c0,0,0.6,0.2,0.7,0.5c0,0.3-0.2,0.3-0.2,0.3l-6,0.6l2.6,0.6c0,0,0.6,0.2,0.7,0.5
				c0.1,0.4,0.1,0.5,0.1,0.5l-5.5-0.5C275.6,86.2,271.4,81,272.4,80.5z"/>
			<path class="st26" d="M278.3,83.9l3.6,0.7c0,0,0.8,0.1,1.2,0.3c0.4,0.3,0.2,0.7,0.2,0.7l-5.5-0.5L278.3,83.9z"/>
		</g>
	</g>
	<g>
		<path class="st29" d="M301,86.7C301,86.7,301,86.7,301,86.7v-1.1h-32.1v1c0,0,0,0,0,0l0.1,0.2c0.5,0.9,1.5,1.1,2.7,1.1h26.6
			c1.1,0,2.1-0.2,2.7-1.1L301,86.7z"/>
		<g>
			<rect x="274.3" y="85.9" class="st30" width="21.3" height="0.7"/>
		</g>
		<g>
			<path class="st31" d="M301,85.8l0.1-21.1c0-0.6-0.4-1-1-1H270c-0.6,0-1,0.4-1,1l-0.1,21.1H301z"/>
			<path class="st29" d="M286.9,74.7c0,1.1-0.9,1.9-2,1.9c-1.1,0-1.9-0.9-1.9-1.9c0-1.1,0.9-1.9,2-1.9
				C286.1,72.8,286.9,73.6,286.9,74.7z"/>
		</g>
	</g>
	<polygon class="st22" points="261.3,89.2 260.1,82 262,80.1 266.1,80.8 265.3,88.7 	"/>
	<polygon class="st23" points="311.3,84.1 311.7,81.4 306.5,76.7 303.7,78 307.4,85.1 	"/>
</g>
<path class="st7" d="M407.7,29.8l-0.1-3.9l-3.5-0.2c-0.3-1.3-0.8-2.5-1.4-3.5l2.3-2.8l-2.8-2.7l-2.6,2.3c-1.1-0.7-2.2-1.2-3.5-1.5
	l-0.4-3.6l-3.9,0.1l-0.2,3.5c-1.3,0.3-2.5,0.8-3.5,1.4l-2.8-2.3l-2.7,2.8l2.3,2.6c-0.7,1.1-1.2,2.2-1.5,3.5l-3.6,0.4l0.1,3.9
	l3.5,0.2c0.3,1.3,0.8,2.5,1.4,3.5l-2.3,2.8l2.8,2.7l2.6-2.3c1.1,0.7,2.2,1.2,3.5,1.5l0.4,3.6l3.9-0.1l0.2-3.5
	c1.3-0.3,2.5-0.8,3.5-1.4l2.8,2.3l2.7-2.8l-2.3-2.6c0.7-1.1,1.2-2.2,1.5-3.5L407.7,29.8z M393.9,33.1c-2.8,0.1-5.2-2.2-5.3-5
	c-0.1-2.8,2.2-5.2,5-5.3c2.8-0.1,5.2,2.2,5.3,5C399,30.7,396.7,33,393.9,33.1z"/>
<circle class="st32" cx="171.1" cy="134.2" r="76.9"/>
<g>
	<path class="st33" d="M116.3,95.8l54.2-19.3l55.6,19l-9,71.7l-46.6,25.8l-45.9-25.5L116.3,95.8z"/>
	<path class="st34" d="M226,95.4l-55.6-19v116.4l46.6-25.8L226,95.4L226,95.4z"/>
	<path class="st35" d="M170.5,90.1l-33.7,75.1l12.6-0.2l6.8-16.9h30.3l7.4,17.2l12,0.2L170.5,90.1L170.5,90.1z M170.6,114.1L182,138
		h-21.4L170.6,114.1L170.6,114.1z"/>
</g>
<g>
	<g>
		<path class="st36" d="M464.9,306.9c-4.9,26-28.7,42.8-53.2,37.6c-24.5-5.2-40.3-30.5-35.4-56.4c4.9-26,28.7-42.8,53.2-37.6
			C453.9,255.6,469.8,280.9,464.9,306.9z"/>
		<path class="st23" d="M484.3,296c-0.1-7.9-1.6-15.6-4.2-22.9l12.4-10.5l-13.9-22.1l-13.9,8.1c-5.3-5.3-11.4-9.8-18.2-13l1.8-16.7
			l-24.6-5.2l-4.5,16.1c-7.5,0.2-14.8,1.7-21.6,4.5l-9.9-13.1l-20.8,14.7l7.6,14.8c-5.1,5.6-9.2,12.1-12.3,19.3l-15.7-1.9l-4.9,26
			l15.2,4.7c0.1,7.9,1.6,15.7,4.2,22.9l-12.4,10.5l13.9,22.1l13.9-8.1c5.3,5.3,11.4,9.8,18.2,13l-1.8,16.7l24.6,5.2l4.5-16.1
			c7.5-0.2,14.8-1.7,21.5-4.5l9.9,13.2l20.8-14.7l-7.6-14.7c5.1-5.6,9.2-12.1,12.3-19.3l15.7,1.9l4.9-26L484.3,296z M464.9,306.9
			c-4.9,26-28.7,42.8-53.2,37.6c-24.5-5.2-40.3-30.5-35.4-56.4c4.9-26,28.7-42.8,53.2-37.6C453.9,255.6,469.8,280.9,464.9,306.9z"/>
	</g>
	<g>
		<path class="st35" d="M406.8,306.1l-19.7-20l2.1-6l27.3-1.6l-2.5,7.1l-18.7,0.2l14,13.3L406.8,306.1z"/>
		<path class="st35" d="M407.4,311.7l21.5-34.3l4.9,1.9l-21.6,34.3L407.4,311.7z"/>
		<path class="st35" d="M424.6,313.1l2.4-7l18.8-0.4l-14.1-13.2l2.4-7l19.8,20l-2.1,6L424.6,313.1z"/>
	</g>
</g>
<g>
	<g>
		<g>
			<g>
				<path class="st26" d="M131.9,200.5l-1.3-3.3c0,0-0.5-1.6-1.8-3.2c-1.2-1.6-3-1.5-4.8-0.6c-1.7,0.9-2.2,1.9-2.2,1.9
					s0.2,2.5,2.2,2.9c2,0.4,5.6,3.9,6.2,3.2C130.8,200.7,131.9,200.5,131.9,200.5z"/>
				<polygon class="st26" points="121.9,196.3 120.1,192.9 118.5,189.6 119.3,189.5 120.7,191.7 124.5,193.9 123.7,194.7 				"/>
				<polygon class="st26" points="122,191.2 121.6,188 122.3,187.7 123.4,190.8 125.5,193.5 123.7,194.7 				"/>
				<polygon class="st26" points="123.7,187.6 124,190.2 123.9,191.9 124.9,193.5 126.7,193 125.5,191.3 124.6,188 				"/>
				<polygon class="st26" points="126.3,188 125.9,192.6 126.7,193.7 128,193.4 127.4,191.2 126.9,188.5 				"/>
			</g>
			<path class="st26" d="M130.9,203c-0.9-1.9-3.1-2.3-3.1-2.3s-5.4-1.2-6-2.2c-0.6-1.1-2.6-2.3-2.6-2.3s-0.6-0.9,1.6-0.5
				c1.4,0.3,2.6,1,2.6,1s3.3-0.4,4.2,0c1.8,0.9,3.9,5.4,3.9,5.4S131,203.2,130.9,203z"/>
			<path class="st37" d="M93.4,229.8c0,0-0.4,6.4,18.7,7.8c19.1,1.5,18.7-2.9,18.7-2.9l1.6-4.6l-6.7-12.7l-6.2,2.8l0,1.1
				c0,0-1,1-2.3,0.6c-1.2-0.3-7-0.2-17.5-2.5C94.7,218.4,93.4,228.6,93.4,229.8z"/>
			<g>
				<path class="st38" d="M99.6,219.5c0.2,0,0.4,0.1,0.6,0.1c-1.6,2.6-2.5,6.1-2.6,6.8c0,0-1.3,6.3,17.6,10c3.4,0.7,6.2,1.1,8.4,1.3
					c-2.7,0.3-6.4,0.3-11.5-0.1c-19.1-1.5-18.7-7.8-18.7-7.8C93.4,228.6,94.7,218.4,99.6,219.5z"/>
			</g>
			<path class="st26" d="M125.3,218.8c0,0,10.8-8.5,2.6-20c-2.5-3.4,1-1,4.2,1.7c3.2,2.6,8.5,12.8,5.5,20.8
				c-2.9,7.9-4.7,10.7-8.2,11C126,232.5,125.3,218.8,125.3,218.8z"/>
			<path class="st38" d="M118.3,227.1l-0.6-3.5l-0.2-1.4c1,0,1.8-0.7,1.8-0.7l0,2.7l0.6,3.2l2.1,3.9L118.3,227.1z"/>
		</g>
		<g>
			<path class="st37" d="M101,270.3l-22.4-0.5l-9.3-31.1c0,0-6-18.8,5.5-19.1c11.6-0.2,24.9-0.2,24.9-0.2S107.6,226.2,101,270.3z"/>
			<path class="st26" d="M80.7,196.1c0,0,11.8,10.9,10.3,14.7c-0.1,0.2-1.9,1.9-2.1,3.7c-0.2,1.7,0.6,2.7,0.6,3.4
				c0,0.2,0.6,1.7,0.7,2.1c0.3,1.9-0.7,3.6-1.5,3.4c-1-0.2-5.3-1.9-6-2.3c-0.5-0.3-1-0.3-1.1-1.1c-0.3-1.7-1.2-4.6-2-5.5
				c-2.5-2.4-9.7-4.8-7.7-11.8C72.3,200.6,79.7,195.6,80.7,196.1z"/>
			<polygon class="st38" points="88.3,223.3 87.7,227.2 80.6,221.3 81.4,219.9 			"/>
			<polygon class="st38" points="90.3,220.8 90.1,219.5 91.4,221.8 91.5,225.9 88.7,223.4 			"/>
			<path class="st24" d="M90.9,210.6c0,0-0.6,0.1-1.6,0.3c-0.4,0-1.4,0.2-1.9,0.4c-2.1,0.9-1.9,1.1-3.2,1.4c-1.6,0.4-5,0.5-5,0.5
				s1.7,0.7,2.4,0.9c1.3,0.5,2.4,0.3,3.3,0c3.8-1.3,3.8-0.9,4.2-1.2C89,212.8,89.1,212.5,90.9,210.6z"/>
			<path class="st26" d="M84.9,201.1c0.2,0.2,2.7,1.5,3.1,1.7c0.5,0.2,1.1,0.5,1.1,0.7c0,0.2,0,0.9,0,1.1c0,0.3-0.2,1.4-1.1,0.5
				C87,204.4,84.9,201.1,84.9,201.1z"/>
			<path class="st25" d="M71.1,202.3c0.7-3.7,5.6-7.2,11.2-6.9c0,0,0.5,0.8,0,2.3c0,0-3.8-0.7-6.4,2.1c-2.7,3,0.6,2.6,0.6,4
				c0,1.1-0.1,2.2-0.1,2.2l1,2.1l-0.7,0.8c0,0-2-1.4-2-0.5c0.1,1.1,1.5,2.3,1.7,2.4c0.2,0.2,0.5,0.5,0.4,0.6c0,0.1,1.1,1,2.4,2.9
				c-0.4,0.3-1.3,0.2-2.5-0.7C74,211.5,70.3,206.8,71.1,202.3z"/>
			<path class="st26" d="M74.7,208.1c-0.7,0.6-0.8,1.6-0.2,2.3c0.6,0.7,1.6,0.8,2.3,0.2"/>
			<path class="st24" d="M86.8,205.4c0,0,1.1-1.6,1.3-1.7c0.2-0.1,0.6-0.4,0.7-0.2c0.1,0.1,0.2,0.7-0.1,1.7
				C88.7,205.4,88.5,205,86.8,205.4z"/>
			<rect x="94.7" y="366.4" class="st39" width="5.8" height="8.8"/>
			<rect x="53.8" y="366.4" class="st39" width="4.7" height="8.8"/>
			<path class="st40" d="M95,377.7h4.2v-1.3l1.8,1.3h10.6c0,0-0.2-1.7-7.3-2c-1.8-0.1-3.1-2.6-3.1-2.6s-0.9-0.8-2.3,1.1
				c-0.4,0.5-4.2-0.5-4.2-0.5S94.3,376.4,95,377.7z"/>
			<path class="st25" d="M100.3,269.6l0.5,47.5l-10.4,7.4c0,0-4.4-15.3-5.2-29.7C84.5,280.3,100.3,269.6,100.3,269.6z"/>
			<path class="st13" d="M100.3,269.6l-22.1,52.1l-4,5.6l-15.5,45.9l-5.8-2.4c0,0,1.4-24.4,5-35.3c3.7-11.2,7.4-18.2,7.4-18.2
				l14.2-49.1L100.3,269.6z"/>
			<path class="st25" d="M92.4,373.4c-1.8-9.3-3.1-27.3-3.2-33.3C89,329,89.7,321,89.7,321l11.1-3.9l0,54.9L92.4,373.4z"/>
			<path class="st40" d="M59.1,379.3h-2.8l-0.9-0.9l-0.4-2.2l-0.9,0.9l-3-3c0.5-1.4,2.6-3,2.6-3s2,3.4,2.7,3.3
				c2.3-0.4,2.4,0.8,2.4,0.8S57.9,378,59.1,379.3z"/>
			<path class="st40" d="M56.2,376.1c0.5,0.6,1.3,1.2,2.2,1.3c7.1,0.3,7.3,2,7.3,2h-9.5V376.1z"/>
		</g>
	</g>
	<path class="st37" d="M70.9,237.8l-13.1,20l-1.8,0.2l0.5,1.7l-9.5-0.7l-2.1-8.2l18.3-27c0,0,5.7-5.2,15.1-3.9
		C85.2,220.9,71.9,236.1,70.9,237.8z"/>
	<path class="st26" d="M56.1,259l9.7,27c0,0-2.1,0.6-3.3-0.4c-3.3-3-9.1-11-11.1-15.4c-2.8-6-4.3-12.5-4.3-12.5L56.1,259z"/>
	<polygon class="st26" points="62.9,285.8 70.3,288.6 71,283.2 69.4,283.8 67.6,282.3 64.8,284.9 	"/>
</g>
</svg>
